TITLE ""
FILE "2Q_k_001-010.mp3" MP3
  TRACK 01 AUDIO
    TITLE "2Q_k_001-010_01"
    INDEX 01 00:00:00
  TRACK 02 AUDIO
    TITLE "2Q_k_001-010_02"
    INDEX 01 00:01:55
  TRACK 03 AUDIO
    TITLE "2Q_k_001-010_03"
    INDEX 01 00:02:25
  TRACK 04 AUDIO
    TITLE "2Q_k_001-010_04"
    INDEX 01 00:04:65
  TRACK 05 AUDIO
    TITLE "2Q_k_001-010_05"
    INDEX 01 00:05:39
  TRACK 06 AUDIO
    TITLE "2Q_k_001-010_06"
    INDEX 01 00:07:46
  TRACK 07 AUDIO
    TITLE "2Q_k_001-010_07"
    INDEX 01 00:08:14
  TRACK 08 AUDIO
    TITLE "2Q_k_001-010_08"
    INDEX 01 00:10:48
  TRACK 09 AUDIO
    TITLE "2Q_k_001-010_09"
    INDEX 01 00:13:58
  TRACK 10 AUDIO
    TITLE "2Q_k_001-010_10"
    INDEX 01 00:14:36
  TRACK 11 AUDIO
    TITLE "2Q_k_001-010_11"
    INDEX 01 00:16:13
  TRACK 12 AUDIO
    TITLE "2Q_k_001-010_12"
    INDEX 01 00:16:60
  TRACK 13 AUDIO
    TITLE "2Q_k_001-010_13"
    INDEX 01 00:18:49
  TRACK 14 AUDIO
    TITLE "2Q_k_001-010_14"
    INDEX 01 00:19:21
  TRACK 15 AUDIO
    TITLE "2Q_k_001-010_15"
    INDEX 01 00:21:46
  TRACK 16 AUDIO
    TITLE "2Q_k_001-010_16"
    INDEX 01 00:26:21
  TRACK 17 AUDIO
    TITLE "2Q_k_001-010_17"
    INDEX 01 00:26:70
  TRACK 18 AUDIO
    TITLE "2Q_k_001-010_18"
    INDEX 01 00:29:10
  TRACK 19 AUDIO
    TITLE "2Q_k_001-010_19"
    INDEX 01 00:29:55
  TRACK 20 AUDIO
    TITLE "2Q_k_001-010_20"
    INDEX 01 00:32:16
  TRACK 21 AUDIO
    TITLE "2Q_k_001-010_21"
    INDEX 01 00:32:61
  TRACK 22 AUDIO
    TITLE "2Q_k_001-010_22"
    INDEX 01 00:40:73
  TRACK 23 AUDIO
    TITLE "2Q_k_001-010_23"
    INDEX 01 00:41:45
  TRACK 24 AUDIO
    TITLE "2Q_k_001-010_24"
    INDEX 01 00:43:65
  TRACK 25 AUDIO
    TITLE "2Q_k_001-010_25"
    INDEX 01 00:44:33
  TRACK 26 AUDIO
    TITLE "2Q_k_001-010_26"
    INDEX 01 00:46:61
  TRACK 27 AUDIO
    TITLE "2Q_k_001-010_27"
    INDEX 01 00:47:31
  TRACK 28 AUDIO
    TITLE "2Q_k_001-010_28"
    INDEX 01 00:52:50
  TRACK 29 AUDIO
    TITLE "2Q_k_001-010_29"
    INDEX 01 00:56:26
  TRACK 30 AUDIO
    TITLE "2Q_k_001-010_30"
    INDEX 01 00:56:72
  TRACK 31 AUDIO
    TITLE "2Q_k_001-010_31"
    INDEX 01 00:59:05
  TRACK 32 AUDIO
    TITLE "2Q_k_001-010_32"
    INDEX 01 00:59:52
  TRACK 33 AUDIO
    TITLE "2Q_k_001-010_33"
    INDEX 01 01:01:39
  TRACK 34 AUDIO
    TITLE "2Q_k_001-010_34"
    INDEX 01 01:02:09
  TRACK 35 AUDIO
    TITLE "2Q_k_001-010_35"
    INDEX 01 01:07:40
  TRACK 36 AUDIO
    TITLE "2Q_k_001-010_36"
    INDEX 01 01:10:62
  TRACK 37 AUDIO
    TITLE "2Q_k_001-010_37"
    INDEX 01 01:11:32
  TRACK 38 AUDIO
    TITLE "2Q_k_001-010_38"
    INDEX 01 01:13:27
  TRACK 39 AUDIO
    TITLE "2Q_k_001-010_39"
    INDEX 01 01:13:68
  TRACK 40 AUDIO
    TITLE "2Q_k_001-010_40"
    INDEX 01 01:16:13
  TRACK 41 AUDIO
    TITLE "2Q_k_001-010_41"
    INDEX 01 01:16:60
  TRACK 42 AUDIO
    TITLE "2Q_k_001-010_42"
    INDEX 01 01:19:41
  TRACK 43 AUDIO
    TITLE "2Q_k_001-010_43"
    INDEX 01 01:23:37
  TRACK 44 AUDIO
    TITLE "2Q_k_001-010_44"
    INDEX 01 01:24:09
  TRACK 45 AUDIO
    TITLE "2Q_k_001-010_45"
    INDEX 01 01:25:69
  TRACK 46 AUDIO
    TITLE "2Q_k_001-010_46"
    INDEX 01 01:26:39
  TRACK 47 AUDIO
    TITLE "2Q_k_001-010_47"
    INDEX 01 01:28:75
  TRACK 48 AUDIO
    TITLE "2Q_k_001-010_48"
    INDEX 01 01:29:45
  TRACK 49 AUDIO
    TITLE "2Q_k_001-010_49"
    INDEX 01 01:32:32
  TRACK 50 AUDIO
    TITLE "2Q_k_001-010_50"
    INDEX 01 01:35:25
  TRACK 51 AUDIO
    TITLE "2Q_k_001-010_51"
    INDEX 01 01:36:01
  TRACK 52 AUDIO
    TITLE "2Q_k_001-010_52"
    INDEX 01 01:38:43
  TRACK 53 AUDIO
    TITLE "2Q_k_001-010_53"
    INDEX 01 01:39:13
  TRACK 54 AUDIO
    TITLE "2Q_k_001-010_54"
    INDEX 01 01:41:62
  TRACK 55 AUDIO
    TITLE "2Q_k_001-010_55"
    INDEX 01 01:42:34
  TRACK 56 AUDIO
    TITLE "2Q_k_001-010_56"
    INDEX 01 01:45:15
  TRACK 57 AUDIO
    TITLE "2Q_k_001-010_57"
    INDEX 01 01:49:62
  TRACK 58 AUDIO
    TITLE "2Q_k_001-010_58"
    INDEX 01 01:50:32
  TRACK 59 AUDIO
    TITLE "2Q_k_001-010_59"
    INDEX 01 01:52:37
  TRACK 60 AUDIO
    TITLE "2Q_k_001-010_60"
    INDEX 01 01:53:07
  TRACK 61 AUDIO
    TITLE "2Q_k_001-010_61"
    INDEX 01 01:56:21
  TRACK 62 AUDIO
    TITLE "2Q_k_001-010_62"
    INDEX 01 01:56:66
  TRACK 63 AUDIO
    TITLE "2Q_k_001-010_63"
    INDEX 01 01:59:74
  TRACK 64 AUDIO
    TITLE "2Q_k_001-010_64"
    INDEX 01 02:02:33
  TRACK 65 AUDIO
    TITLE "2Q_k_001-010_65"
    INDEX 01 02:03:05
  TRACK 66 AUDIO
    TITLE "2Q_k_001-010_66"
    INDEX 01 02:04:56
  TRACK 67 AUDIO
    TITLE "2Q_k_001-010_67"
    INDEX 01 02:05:28
  TRACK 68 AUDIO
    TITLE "2Q_k_001-010_68"
    INDEX 01 02:07:48
  TRACK 69 AUDIO
    TITLE "2Q_k_001-010_69"
    INDEX 01 02:08:20
  TRACK 70 AUDIO
    TITLE "2Q_k_001-010_70"
    INDEX 01 02:10:44
  TRACK 71 AUDIO
    TITLE "2Q_k_001-010_71"
    INDEX 01 02:15:40
